{"title":"Down.The.Rabbit.Hole.XXX.DVDRip.x264-CHiKANi","uid":8935118,"size":1463329829,"categoryP":"porn","categoryS":"movies","magnet":"?xt=urn:btih:3e88a9e549d9bfb1e133d4372086d8973ce2cc3b&amp;dn=Down.The.Rabbit.Hole.XXX.DVDRip.x264-CHiKANi&amp;tr=udp%3A%2F%2Ftracker.openbittorrent.com%3A80&amp;tr=udp%3A%2F%2Fopen.demonii.com%3A1337&amp;tr=udp%3A%2F%2Ftracker.coppersurfer.tk%3A6969&amp;tr=udp%3A%2F%2Fexodus.desync.com%3A6969","seeders":0,"leechers":1,"uploader":null,"files":1,"time":1379544432,"description":" &lt;a href=&quot;http://picturemost.biz/share.php?id=79B9_523A10EC&quot; rel=&quot;nofollow&quot; target=&quot;_NEW&quot;&gt;http://picturemost.biz/share.php?id=79B9_523A10EC&lt;/a&gt;\n\n\n\nThe squeal and scream, squawk and squirm but in the end they all love anal. Watch beautiful Holly Michaels, nasty Asphyxia Noir, cute Chastity Lynn and more, open their pretty little puckers to some of the biggest dicks in porn. Just when you think they'll never fit, they make it fit. And just when you think they can't take it, they achieve the kind of shuddering orgasms that only a good ass fucking can bring. It's teases and please master B. Skows first all anal feature and it won't be his last!\n\nFormat : MPEG-4\nFormat profile : Base Media\nCodec ID : isom\nFile size : 1.36 GiB\nDuration : 3h 32mn\nOverall bit rate mode : Variable\nOverall bit rate : 920 Kbps\nEncoded date : UTC 2013-09-13 19:37:01\nTagged date : UTC 2013-09-13 19:37:01\n\nVideo\nID : 1\nFormat : AVC\nFormat/Info : Advanced Video Codec\nFormat profile : &lt;a class=&quot;__cf_email__&quot; href=&quot;/cdn-cgi/l/email-protection&quot; data-cfemail=&quot;3a72535d527a7609140b&quot;&gt;[email&amp;#160;protected]&lt;/a&gt;&lt;script cf-hash='f9e31' type=&quot;text/javascript&quot;&gt;\n/* &lt;![CDATA[ */!function(){try{var t=&quot;currentScript&quot;in document?document.currentScript:function(){for(var t=document.getElementsByTagName(&quot;script&quot;),e=t.length;e--;)if(t[e].getAttribute(&quot;cf-hash&quot;))return t[e]}();if(t&amp;&amp;t.previousSibling){var e,r,n,i,c=t.previousSibling,a=c.getAttribute(&quot;data-cfemail&quot;);if(a){for(e=&quot;&quot;,r=parseInt(a.substr(0,2),16),n=2;a.length-n;n+=2)i=parseInt(a.substr(n,2),16)^r,e+=String.fromCharCode(i);e=document.createTextNode(e),c.parentNode.replaceChild(e,c)}}}catch(u){}}();/* ]]&gt; */&lt;/script&gt;\nFormat settings, CABAC : Yes\nFormat settings, ReFrames : 5 frames\nCodec ID : avc1\nCodec ID/Info : Advanced Video Coding\nDuration : 3h 32mn\nBit rate : 787 Kbps\nMaximum bit rate : 1 764 Kbps\nWidth : 704 pixels\nHeight : 394 pixels\nDisplay aspect ratio : 16:9\nFrame rate mode : Constant\nFrame rate : 23.976 fps\nColor space : YUV\nChroma subsampling : 4:2:0\nBit depth : 8 bits\nScan type : Progressive\nBits/(Pixel*Frame) : 0.118\nStream size : 1.17 GiB (86%)\nWriting library : x264 core 138 r2358kMod 9e941d1\n\nAudio\nID : 2\nFormat : AAC\nFormat/Info : Advanced Audio Codec\nFormat profile : LC\nCodec ID : 40\nDuration : 3h 32mn\nBit rate mode : Variable\nBit rate : 128 Kbps\nMaximum bit rate : 162 Kbps\nChannel(s) : 2 channels\nChannel positions : Front: L R\nSampling rate : 48.0 KHz\nCompression mode : Lossy\nStream size : 194 MiB (14%)\nLanguage : English\nEncoded date : UTC 2013-09-13 17:40:43\nTagged date : UTC 2013-09-13 19:38:45","torrent":{"xt":"urn:btih:3e88a9e549d9bfb1e133d4372086d8973ce2cc3b","amp;dn":"Down.The.Rabbit.Hole.XXX.DVDRip.x264-CHiKANi","amp;tr":["udp%3A%2F%2Ftracker.openbittorrent.com%3A80","udp%3A%2F%2Fopen.demonii.com%3A1337","udp%3A%2F%2Ftracker.coppersurfer.tk%3A6969","udp%3A%2F%2Fexodus.desync.com%3A6969"],"infoHash":"3e88a9e549d9bfb1e133d4372086d8973ce2cc3b","infoHashBuffer":{"type":"Buffer","data":[62,136,169,229,73,217,191,177,225,51,212,55,32,134,216,151,60,226,204,59]},"announce":[],"urlList":[]}}